<svg width="32" height="32" viewBox="0 0 32 32" fill="none" xmlns="http://www.w3.org/2000/svg">
  <!-- Child's face -->
  <circle cx="16" cy="14" r="8" fill="#FDBCB4" stroke="#E8A398" stroke-width="0.5"/>

  <!-- Hair -->
  <path d="M8 14 Q8 8, 16 8 T24 14" fill="#8B4513" opacity="0.9"/>
  <circle cx="10" cy="10" r="2" fill="#8B4513" opacity="0.9"/>
  <circle cx="22" cy="10" r="2" fill="#8B4513" opacity="0.9"/>

  <!-- Eyes -->
  <circle cx="13" cy="14" r="1.5" fill="white"/>
  <circle cx="19" cy="14" r="1.5" fill="white"/>
  <circle cx="13" cy="14" r="1" fill="#4A90E2"/>
  <circle cx="19" cy="14" r="1" fill="#4A90E2"/>
  <circle cx="13.3" cy="13.7" r="0.3" fill="white"/>
  <circle cx="19.3" cy="13.7" r="0.3" fill="white"/>

  <!-- Eyebrows -->
  <path d="M11 11.5 Q13 10.5, 15 11.5" stroke="#8B4513" stroke-width="0.5" fill="none" stroke-linecap="round"/>
  <path d="M17 11.5 Q19 10.5, 21 11.5" stroke="#8B4513" stroke-width="0.5" fill="none" stroke-linecap="round"/>

  <!-- Nose -->
  <path d="M16 15 L15.5 16 L16.5 16 Z" fill="#E8A398" opacity="0.5"/>

  <!-- Smile -->
  <path d="M13 17 Q16 19, 19 17" stroke="#E57373" stroke-width="0.8" fill="none" stroke-linecap="round"/>

  <!-- Cheeks (rosy) -->
  <circle cx="11" cy="16" r="1.2" fill="#FFB6C1" opacity="0.4"/>
  <circle cx="21" cy="16" r="1.2" fill="#FFB6C1" opacity="0.4"/>

  <!-- Body/Shirt -->
  <ellipse cx="16" cy="26" rx="7" ry="5" fill="#4CAF50"/>
  <rect x="9" y="21" width="14" height="8" rx="2" fill="#4CAF50"/>

  <!-- Arms -->
  <ellipse cx="8" cy="24" rx="2" ry="3" fill="#FDBCB4"/>
  <ellipse cx="24" cy="24" rx="2" ry="3" fill="#FDBCB4"/>

  <!-- Book in hands -->
  <rect x="11" y="24" width="10" height="6" rx="0.5" fill="#2196F3"/>
  <rect x="11.5" y="24.5" width="9" height="5" rx="0.3" fill="#E3F2FD"/>
  <line x1="16" y1="24.5" x2="16" y2="29.5" stroke="#1976D2" stroke-width="0.3"/>
  <path d="M13 26 L15 26 M13 27 L15 27 M17 26 L19 26 M17 27 L19 27" stroke="#64B5F6" stroke-width="0.3"/>
</svg>